<?xml version="1.0" encoding="UTF-8"?>
<svg id="Layer_1" data-name="Layer 1" xmlns="http://www.w3.org/2000/svg" viewBox="0 0 1920 1850.79">
  <defs>
    <style>
      .cls-1 {
        fill: #f5f5f5;
      }
    </style>
  </defs>
  <path class="cls-1" d="M1905.9,796.37C1815.65,273.82,1319.26-76.07,796.71,14.18c-1.31,0-2.62,0-4.58.65-266.83,47.09-447.99,302.8-403.52,570.29,3.92,24.85,9.16,49.05,15.04,73.25,19.62,82.4,42.51,144.53,68.02,203.39,1.31,3.27-3.27,5.89-5.23,3.27-149.77-170.04-200.78-355.12-196.85-534.32,0-13.73-16.35-20.27-25.51-10.46C75.35,509.26-17.52,763.67,2.75,1030.5c0,3.92,1.96,7.19,4.58,9.81,115.76,108.56,188.35,262.26,188.35,433.6,0,12.41-.65,25.95-1.32,38.22-1.11,20.55-.39,24.57,8.51,26.53,181.16,33.35,334.2,149.11,417.91,306.73,3.92,7.19,13.73,7.19,17.66,0,65.4-121.64,104.64-259.64,111.83-406.14v-7.85c0-13.08.65-25.51.65-38.59v-18.31c-1.96-85.67-15.04-171.35-39.24-253.75-17.66-60.17-44.47-115.76-59.51-175.27-7.19-26.81-11.77-54.94-11.77-84.37h0c0-117.07,54.94-221.05,139.3-287.76,5.23-4.58,11.12-8.5,17-12.43h0c10.46-7.19,18.31-18.97,21.58-32.7,0-1.96.65-4.58,1.31-6.54,4.58-30.08,7.19-61.48,7.19-92.87s0-19.62-.65-28.78c0-7.19,5.89-12.43,12.43-12.43s4.58,0,6.54,1.96h1.31c41.2,26.16,79.13,57.55,112.49,93.52.65.65,1.31,1.96,1.96,2.62h0c5.23,5.89,12.43,9.16,20.93,9.81h7.85c15.7-2.62,26.81-16.35,26.81-32.7s0-4.58,0-6.54v-1.31c0-.65,0-1.96-.65-2.62-5.23-21.58-11.77-41.86-18.97-62.13,0-1.31-1.31-3.27-1.31-5.23,0-7.19,5.89-12.43,12.43-12.43s4.58.65,6.54,1.96c.65,0,1.31,1.31,1.96,1.96,24.2,18.31,47.09,39.24,68.02,61.48h.65c0,.65,162.85,148.46,162.85,148.46l8.5,7.85,19.62,19.62s21.58,21.58,21.58,22.24l10.46,11.12,9.81,9.81,16.35,16.35c5.23,5.23,9.16,11.12,11.77,17.66,2.62,6.54,3.92,13.73,3.92,20.93s0,7.19-1.31,10.46h0v1.96c0,1.31,0,3.27-.65,4.58-.65,1.31,0,3.27,0,5.23v1.31c0,9.16,1.96,17.66,5.89,24.85,1.31,1.96,1.96,3.92,3.27,5.89,1.31,1.96,3.27,4.58,4.58,7.19,3.27,5.23,7.19,10.46,11.12,15.7,17.66,24.2,37.93,45.78,61.48,64.75,5.23,4.58,11.12,8.5,16.35,13.08,1.96,1.31,3.27,2.62,5.23,3.92,2.62,1.96,4.58,3.27,7.19,5.23,0,0,1.31.65,1.31,1.31,3.27,2.62,4.58,5.89,4.58,9.81s-1.31,6.54-3.92,9.16l-30.74,30.08-17,17-22.24,21.58-2.62,2.62c-3.27,3.27-6.54,5.89-9.81,8.5-10.46,8.5-22.24,15.04-34.66,20.27-16.35,6.54-34.01,10.46-52.97,10.46s-39.89-4.58-57.55-12.43l-8.5-3.27-9.16-3.92-102.68-40.55-2.62-1.31-4.58-1.96-28.78-11.77c-3.92-1.31-7.85-3.27-11.77-5.23-3.92-1.96-7.85-4.58-11.12-7.19-3.92-3.27-7.85-7.19-11.77-11.12-11.12-12.43-18.31-27.47-20.93-45.13v-.65c-.65-5.89-1.31-11.77-.65-17.66v-7.19c-1.31-9.81-9.16-17-18.97-17h-4.58c-5.89.65-11.12,4.58-14.39,9.81h0c-2.62,4.58-5.23,9.81-7.85,14.39-11.12,24.2-15.7,51.01-11.12,79.13,9.81,64.75,67.36,108.56,113.14,149.11,17,15.04,34.66,28.78,52.97,42.51,11.77,8.5,23.54,17,35.32,25.51,182.47,137.99,313.92,340.08,361.66,572.91,1.31,7.19,9.81,10.46,15.7,5.89,270.1-210.59,421.83-562.44,359.05-923.45h0Z"/>
</svg>