<?xml version="1.0" encoding="UTF-8"?>
<svg version="1.1" viewBox="0 0 93.531 108" xmlns="http://www.w3.org/2000/svg">
<path d="m46.766 0-46.766 27v53.999l46.765 27.001 46.766-27v-53.998zm36.977 75.349-36.978 21.349-36.977-21.349v-42.698l36.978-21.35 36.977 21.351zm-51.166-32.823 0.192-3e-3c0.298 0 0.597 0.021 0.889 0.063l0.517 0.034 0.427 0.027a5.64 5.64 0 0 0 1.817-0.33l23.284-13.442-12.938-7.47-28.225 16.298v32.594l6.705 3.872 28.617-16.522a5.78 5.78 0 0 0 1.412-1.76c0.738-3.258 3.674-5.616 7.024-5.623 3.986 0 7.226 3.231 7.239 7.202 8e-3 3.981-3.224 7.229-7.203 7.24a6.284 6.284 0 0 1-1.08-0.062c-0.181-2e-3 -0.349-0.017-0.517-0.032-0.14-0.012-0.276-0.026-0.426-0.026h-0.039c-0.385 0-0.774 0.044-1.156 0.131l-25.122 14.503 12.771 7.375 28.227-16.298v-32.594l-6.538-3.775-27.879 16.095a5.33 5.33 0 0 0-0.937 1.314 7.26 7.26 0 0 1-7.024 5.629 7.24 7.24 0 0 1-7.24-7.203c-5e-3 -1.93 0.742-3.745 2.102-5.112s3.172-2.121 5.101-2.125z" fill="#e0e0df"/>
</svg>
